# xmcd CD database file
#
# Track frame offsets:
#	150
#	11290
#	35865
#	46920
#	62957
#	86265
#	106085
#	128750
#	161170
#	185510
#	202180
#	226955
#
# Disc length: 3183 seconds
#
# Revision: 0
# Processed by: cddbd v1.5.2PL0 Copyright (c) Steve Scherf et al.
# Submitted via: CDex 1.51
#
DISCID=9c0c6d0c
DTITLE=Ann Burton - Collage
DYEAR=1999
DGENRE=Jazz
TTITLE0=A lovely way to spend an evening
TTITLE1=Try a little tenderness
TTITLE2=That ole devil called love
TTITLE3=In the wee small hours of the morning
TTITLE4=The shadow of your smile
TTITLE5=A boy named Charlie Brown
TTITLE6=I can't give you anything but love
TTITLE7=Someone to watch over me
TTITLE8=It never entered my mind
TTITLE9=But not for me
TTITLE10=Here's that rainy day
TTITLE11=The good life
EXTD=YEAR: 1999
EXTT0=
EXTT1=
EXTT2=
EXTT3=
EXTT4=
EXTT5=
EXTT6=
EXTT7=
EXTT8=
EXTT9=
EXTT10=
EXTT11=
PLAYORDER=
